HIERARCHY
ROOT Hips
{
	OFFSET 0.000000 0.000000 0.000000
	CHANNELS 6 Xposition Yposition Zposition Zrotation Yrotation Xrotation 
	JOINT LHipJoint
	{
		OFFSET 0.000000 0.000000 0.000000
		CHANNELS 3 Zrotation Yrotation Xrotation
		JOINT LeftUpLeg
		{
			OFFSET 1.363060 -1.794630 0.839290
			CHANNELS 3 Zrotation Yrotation Xrotation
			JOINT LeftLeg
			{
				OFFSET 2.448110 -6.726130 0.000000
				CHANNELS 3 Zrotation Yrotation Xrotation
				JOINT LeftFoot
				{
					OFFSET 2.562200 -7.039590 0.000000
					CHANNELS 3 Zrotation Yrotation Xrotation
					JOINT LeftToeBase
					{
						OFFSET 0.157640 -0.433110 2.322550
						CHANNELS 3 Zrotation Yrotation Xrotation
						End Site
						{
							OFFSET 0.000000 0.000000 0.000000
						}
					}
				}
			}
		}
	}
	JOINT RHipJoint
	{
		OFFSET 0.000000 0.000000 0.000000
		CHANNELS 3 Zrotation Yrotation Xrotation
		JOINT RightUpLeg
		{
			OFFSET -1.305520 -1.794630 0.839290
			CHANNELS 3 Zrotation Yrotation Xrotation
			JOINT RightLeg
			{
				OFFSET -2.542530 -6.985550 0.000000
				CHANNELS 3 Zrotation Yrotation Xrotation
				JOINT RightFoot
				{
					OFFSET -2.568260 -7.056230 0.000000
					CHANNELS 3 Zrotation Yrotation Xrotation
					JOINT RightToeBase
					{
						OFFSET -0.164730 -0.452590 2.363150
						CHANNELS 3 Zrotation Yrotation Xrotation
						End Site
						{
							OFFSET 0.000000 0.000000 0.000000
						}
					}
				}
			}
		}
	}
	JOINT LowerBack
	{
		OFFSET 0.000000 0.000000 0.000000
		CHANNELS 3 Zrotation Yrotation Xrotation
		JOINT Spine
		{
			OFFSET 0.028270 2.035590 -0.193380
			CHANNELS 3 Zrotation Yrotation Xrotation
			JOINT Spine1
			{
				OFFSET 0.056720 2.048850 -0.042750
				CHANNELS 3 Zrotation Yrotation Xrotation
				JOINT Neck
				{
					OFFSET 0.000000 0.000000 0.000000
					CHANNELS 3 Zrotation Yrotation Xrotation
					JOINT Neck1
					{
						OFFSET -0.054170 1.746240 0.172020
						CHANNELS 3 Zrotation Yrotation Xrotation
						JOINT Head
						{
							OFFSET 0.104070 1.761360 -0.123970
							CHANNELS 3 Zrotation Yrotation Xrotation
							End Site
							{
								OFFSET 0.000000 0.000000 0.000000
							}
						}
					}
				}
				JOINT LeftShoulder
				{
					OFFSET 0.000000 0.000000 0.000000
					CHANNELS 3 Zrotation Yrotation Xrotation
					JOINT LeftArm
					{
						OFFSET 3.362410 1.200890 -0.311210
						CHANNELS 3 Zrotation Yrotation Xrotation
						JOINT LeftForeArm
						{
							OFFSET 4.983000 -0.000000 -0.000000
							CHANNELS 3 Zrotation Yrotation Xrotation
							JOINT LeftHand
							{
								OFFSET 3.483560 -0.000000 -0.000000
								CHANNELS 3 Zrotation Yrotation Xrotation
								JOINT LeftFingerBase
								{
									OFFSET 0.000000 0.000000 0.000000
									CHANNELS 3 Zrotation Yrotation Xrotation
									JOINT LeftHandIndex1
									{
										OFFSET 0.715260 -0.000000 -0.000000
										CHANNELS 3 Zrotation Yrotation Xrotation
										End Site
										{
											OFFSET 0.000000 0.000000 0.000000
										}
									}
								}
								JOINT LThumb
								{
									OFFSET 0.000000 0.000000 0.000000
									CHANNELS 3 Zrotation Yrotation Xrotation
									End Site
									{
										OFFSET 0.000000 0.000000 0.000000
									}
								}
							}
						}
					}
				}
				JOINT RightShoulder
				{
					OFFSET 0.000000 0.000000 0.000000
					CHANNELS 3 Zrotation Yrotation Xrotation
					JOINT RightArm
					{
						OFFSET -3.136600 1.374050 -0.404650
						CHANNELS 3 Zrotation Yrotation Xrotation
						JOINT RightForeArm
						{
							OFFSET -5.241900 -0.000000 -0.000000
							CHANNELS 3 Zrotation Yrotation Xrotation
							JOINT RightHand
							{
								OFFSET -3.444170 -0.000000 -0.000000
								CHANNELS 3 Zrotation Yrotation Xrotation
								JOINT RightFingerBase
								{
									OFFSET 0.000000 0.000000 0.000000
									CHANNELS 3 Zrotation Yrotation Xrotation
									JOINT RightHandIndex1
									{
										OFFSET -0.622530 -0.000000 -0.000000
										CHANNELS 3 Zrotation Yrotation Xrotation
										End Site
										{
											OFFSET 0.000000 0.000000 0.000000
										}
									}
								}
								JOINT RThumb
								{
									OFFSET 0.000000 0.000000 0.000000
									CHANNELS 3 Zrotation Yrotation Xrotation
									End Site
									{
										OFFSET 0.000000 0.000000 0.000000
									}
								}
							}
						}
					}
				}
			}
		}
	}
}
MOTION
Frames: 5
Frame Time: 0.008333
26.017857 15.906446 -0.288939 165.311212 79.134406 159.108352 2.539906 -1.399354 -1.716921 -16.740316 6.264166 28.382419 4.796142 14.310931 44.804369 0.097817 -1.797635 2.622322 0.649800 -5.156500 -14.355600 -4.636115 1.750592 -2.662414 14.002308 3.158101 -28.506369 -5.536093 -15.447455 43.375242 -0.163130 -4.099910 -10.193664 -0.282400 3.418100 -9.444900 -3.310127 -2.439310 14.345762 1.273128 -3.172686 -1.457044 3.506373 -2.084492 3.457942 0.368064 1.131437 -22.243769 4.717279 1.167594 7.761764 -1.399600 0.905400 11.138800 6.944900 -1.570041 -0.015900 -71.919389 -17.383659 59.452658 101.042680 -59.217105 -70.430027 -1.028663 0.666656 -15.975061 37.349165 -27.204901 -20.276300 -7.125000 0.000000 0.000000 4.428800 -4.049900 -4.744300 -4.520011 2.321825 1.952741 59.371705 -31.440000 26.033320 -35.087717 44.998775 -13.468092 0.609359 -1.515033 -6.244449 -20.290468 -22.615319 7.687400 7.125000 0.000000 0.000000 8.018200 -51.981900 -1.385700 
26.310810 15.997956 -0.262278 176.127766 79.683798 169.183467 2.565900 -1.310580 -1.588396 -14.398682 5.554261 26.744747 5.771702 15.035609 48.324013 0.093553 -1.727805 2.285701 0.202900 -2.900500 -8.002000 -5.098114 1.898599 -2.913767 17.626765 3.807527 -25.644857 -5.254275 -15.481270 42.446192 -0.149535 -4.635547 -11.286447 -0.305000 3.550800 -9.816200 -1.329861 -2.525773 15.038192 1.423255 -2.990418 -1.431590 3.004084 -1.960785 3.198976 0.623126 1.026973 -22.040647 4.850451 0.910706 7.657963 -1.386700 0.821600 11.043100 7.016044 -1.552543 -0.037446 -73.193516 -14.777918 60.346805 97.208552 -59.512995 -67.097170 -1.005618 0.669620 -15.456947 36.739250 -26.861464 -19.651000 -7.125000 0.000000 0.000000 4.153100 -3.447700 -4.406600 -4.663119 2.273106 2.069500 62.848357 -28.216047 20.305847 -32.429160 43.109176 -11.920621 0.533672 -1.566099 -2.662162 -20.158763 -22.378626 7.554900 7.125000 0.000000 0.000000 8.044900 -51.700000 -1.334600 
26.591926 16.097906 -0.239736 -173.054281 79.794891 179.539352 2.596480 -1.247506 -1.499031 -12.190939 4.883300 24.666233 6.709516 15.655523 51.567880 0.076989 -1.447220 2.241763 0.071100 -1.719800 -4.732000 -5.430280 2.016954 -3.119622 20.874082 4.299020 -23.146124 -4.918529 -15.410787 41.296755 -0.140112 -5.046981 -12.302330 -0.244400 3.181100 -8.783300 0.633807 -2.596682 15.368686 1.555916 -2.780129 -1.396504 2.376672 -1.810427 3.051073 0.941079 0.976756 -21.493561 4.757601 0.673433 7.345470 -1.514000 0.704100 10.712200 7.100381 -1.562031 -0.022464 -74.440980 -12.589688 61.084517 91.867396 -59.735514 -62.465821 -0.986090 0.669348 -15.470834 36.136898 -26.999540 -19.325700 -7.125000 0.000000 0.000000 3.768500 -3.394900 -3.993500 -4.803000 2.172450 2.148035 66.325054 -24.879501 14.255926 -29.939943 41.262661 -10.590031 0.444608 -1.614575 0.556385 -20.392442 -22.475698 7.672700 7.125000 0.000000 0.000000 7.835600 -51.814900 -1.321600 
26.867791 16.209487 -0.235721 -167.956870 79.697657 -175.723324 2.577779 -1.249497 -1.422700 -11.354279 4.352936 22.421256 7.557424 16.249273 54.526515 0.041529 -0.915436 2.097203 0.058100 -1.555000 -4.277500 -5.613343 2.142183 -3.329114 22.688326 4.221721 -20.787468 -4.635420 -15.240103 40.213196 -0.161105 -5.007904 -13.127200 -0.126100 2.289500 -6.306400 1.696948 -2.595282 15.650601 1.581864 -2.596811 -1.389231 1.857084 -1.699524 3.005578 0.810069 0.737127 -21.630100 5.050915 0.414262 7.510647 -1.319100 0.626400 10.862200 7.110802 -1.495101 -0.049546 -75.758826 -10.566035 61.676235 85.315344 -59.683213 -56.792904 -0.970352 0.659388 -15.562266 35.681967 -27.025862 -19.030200 -7.125000 0.000000 0.000000 3.497600 -3.259300 -3.697500 -5.027301 2.159297 2.158817 69.746273 -21.468514 7.868954 -27.764761 39.551660 -9.516352 0.335935 -1.658647 3.029492 -21.237800 -22.136114 7.858400 7.125000 0.000000 0.000000 6.910400 -51.565700 -1.121900 
27.154568 16.322922 -0.252191 -170.354233 79.358572 -178.198010 2.460946 -1.355942 -1.345782 -12.358011 3.535318 20.044488 8.272268 16.838895 57.144381 0.054901 -1.049181 1.165406 0.114000 -2.176900 -5.994700 -5.676706 2.263829 -3.576987 22.631206 3.073584 -18.676696 -4.406196 -14.911073 39.061748 -0.215631 -4.449699 -13.585291 -0.034400 1.196400 -3.289300 1.525866 -2.575100 15.554633 1.500518 -2.615318 -1.394620 1.464515 -1.697569 3.060972 0.640397 0.581149 -21.244264 5.278027 0.248860 7.368372 -1.159700 0.557000 10.668500 7.089349 -1.435790 -0.045364 -77.194030 -8.687632 61.999397 77.520671 -59.201642 -50.059408 -0.957454 0.650475 -15.300317 35.650631 -26.977578 -18.968400 -7.125000 0.000000 0.000000 3.490300 -3.175100 -3.684900 -5.272174 2.093795 2.149338 73.109954 -18.204746 1.513813 -26.211313 38.329039 -8.825824 0.232605 -1.691381 4.281387 -22.245471 -21.446823 7.953900 7.125000 0.000000 0.000000 5.758900 -50.967600 -0.849100 
